# xmcd
#
# Track frame offsets:
#	150
#	12608
#	31564
#	48514
#	65315
#	81707
#	97835
#	113368
#	133903
#	145618
#	159625
#	172014
#	184606
#
# Disc length: 2688 seconds
#
# Revision: 0
# Processed by: cddbd v1.5.2PL0 Copyright (c) Steve Scherf et al.
# Submitted via: dBpowerAMP V4.0
#
DISCID=a60a7e0d
DTITLE=World's Greatest Fishing Band - Papa Was a Fishin' Man - Freshwater I
DYEAR=1900
DGENRE=Country
TTITLE0=When Tammy Does the Shimmy at the Fish Fry
TTITLE1=Papa Was a Fishin' Man
TTITLE2=Big Boss Bass
TTITLE3=Breathin' Room
TTITLE4=Middle of the Week
TTITLE5=Cane Pole and Bobber
TTITLE6=Take me Back to Texas
TTITLE7=Only Time I saw Him Smile
TTITLE8=Bluegill Boogie
TTITLE9=Why's Everybody Gettin' Bit Except Me?
TTITLE10=Walleyed Again
TTITLE11=Musky Man
TTITLE12=Back into the Circle
EXTD=
EXTT0=
EXTT1=
EXTT2=
EXTT3=
EXTT4=
EXTT5=
EXTT6=
EXTT7=
EXTT8=
EXTT9=
EXTT10=
EXTT11=
EXTT12=
PLAYORDER=
